<?xml version="1.0" encoding="utf-8"?>
<!-- Generator: Adobe Illustrator 24.1.2, SVG Export Plug-In . SVG Version: 6.00 Build 0)  -->
<svg version="1.1" id="Capa_1" xmlns="http://www.w3.org/2000/svg" xmlns:xlink="http://www.w3.org/1999/xlink" x="0px" y="0px"
	 viewBox="0 0 150 150" style="enable-background:new 0 0 150 150;" xml:space="preserve">
<style type="text/css">
	.st0{fill:#407088;stroke:#000000;stroke-miterlimit:10;}
	.st1{fill:#70ABB5;stroke:#000000;stroke-miterlimit:10;}
	.st2{fill:none;stroke:#000000;stroke-miterlimit:10;}
	.st3{fill:#70ABB5;}
	.st4{display:none;fill:#FFFFFF;}
	.st5{display:none;}
	.st6{display:inline;}
</style>
<g>
	<ellipse class="st0" cx="74.79" cy="75.27" rx="71" ry="38.5"/>
	<g>
		<path class="st1" d="M31.43,76.62l-3.1,7.28l-1.6,3.82c0,0-0.86,0.91,0.23,1.76c1.09,0.85,2.66,1.46,2.66,1.46l2.6-6.49l4.02-8.62
			c0,0,1.2-1.51,0-3.7l-2.82-4.83l-1.2-2.15c0,0-0.7-0.85,0.03-1.81c0.73-0.97,4.2-5.95,4.2-5.95s0.8-0.3-0.11-1.81l-1.87-4.01
			l-7.49,10.5c0,0-0.22,2.18,0.58,2.61l4.6,7.88c0,0,0.8,1.04,0.03,2.55"/>
		<polygon class="st1" points="34.47,51.56 35.45,51.08 37.79,56.48 36.77,56.84 		"/>
		<path class="st1" d="M37.79,56.48L33,63.46c0,0-0.7,0.72,0.33,2.13l3.44,5.22l0.7,0.97c0,0,0.88,1.51,0.33,3.22l-1.03,2.48
			l-0.84,1.58l-1.87,3.76l-3.22,7.28l-1.25,0.85l2.6-6.49l4.02-8.62c0,0,1.26-1.6,0-3.7l-2.82-4.83l-1.2-2.15
			c0,0-0.79-0.46,0.03-1.81c0.82-1.37,4.53-6.49,4.53-6.49L37.79,56.48z"/>
		<path class="st1" d="M38.7,70.01"/>
		<line class="st2" x1="32.2" y1="75.1" x2="31.43" y2="76.62"/>
	</g>
	<g id="V_2_">
		<path class="st1" d="M57.28,55.68c-0.02-0.12-0.05-0.24-0.06-0.36l-1.41,3.63l-2.29,10.4l-1.02,5.67l0.6-3.73l2.71-12.32
			l1.39-3.81c-0.01-0.13-0.02-0.27-0.02-0.41c0-0.02,0-0.06,0-0.08c-0.03-0.07-0.05-0.14-0.03-0.22c0-0.02,0.01-0.04,0.02-0.07
			c-0.03-0.01-0.07-0.01-0.11-0.02c-0.09-0.02-0.16-0.1-0.19-0.19L54.79,54l-2.03,4.35l-0.78,3.31l-1.07,5.6l-1.56,5.12l-2.79,9.76
			l-0.08-0.39l0.64-1.59l-0.02-1.08l-0.03-2.1l-0.07-3.64l-0.25-5.46l-0.07-3.58l-0.06-2.91l-0.06-3.07l-0.05-2.59l-0.03-1.68
			l-0.33,0.02l-2.81-0.27l-1.72,3.92l0.02,1.35l0.06,3.27l0.47,5.95l0.07,3.61l0.5,4.6l0.46,5.28l0.56,4.7l0.07,3.94l5.03-0.57
			c0.27-0.16,0.58-0.27,0.89-0.37l0.05-0.3l-0.02,0.13c0.01,0.01,0.02,0.02,0.02,0.03c0.01,0.03,0.02,0.07,0.02,0.11
			c0.02-0.01,0.06-0.01,0.08-0.02l1.65-2.76l1.32-6.65l1.52-8.48l0.93-4.51l1.11-5.78l1.03-5.37C57.38,55.86,57.3,55.79,57.28,55.68
			z M45.9,75.8l-0.02-0.46l0.6,6.41l-0.08-0.4L45.9,75.8z"/>
		<path class="st1" d="M45.66,70.23l-0.02-0.37L45.66,70.23z"/>
		<polygon class="st1" points="44.76,59.16 44.83,59.97 44.67,57.98 		"/>
		<polyline class="st1" points="41.65,57.71 44.67,57.98 46.49,54.03 		"/>
		<polyline class="st1" points="45.87,75.34 45.66,70.23 44.83,59.97 		"/>
		<line class="st2" x1="53.2" y1="57.41" x2="56.23" y2="57.8"/>
		<path class="st1" d="M52.49,75.01c-0.94,4.77-1.71,9.39-2.66,14.25"/>
		<rect x="45" y="82.17" class="st3" width="4.59" height="3.94"/>
	</g>
	<g id="D_1_">
		<path class="st4" d="M59.92,92.28c0-14.03,0-28.05,0-42.07c6.47,0,12.94,0,19.42,0c0,14.03,0,28.05,0,42.07
			C72.86,92.28,66.39,92.28,59.92,92.28z M64.18,90.04c0,0.01,0,0.01,0,0.02c0.17,0,0.33,0,0.5,0c0.37,0,0.73,0.02,1.1-0.11
			c0.38-0.13,0.76-0.27,1.15-0.24c0.24,0.01,0.47-0.03,0.71-0.07c0.31-0.04,0.62-0.1,0.93-0.16c0.39-0.08,0.78-0.13,1.16-0.28
			c0.31-0.12,0.6-0.39,0.89-0.58c0.22-0.14,0.4-0.37,0.58-0.62c0.25-0.36,0.52-0.7,0.78-1.04c0.21-0.27,0.4-0.55,0.56-0.88
			c0.41-0.81,0.85-1.59,1.27-2.39c0.19-0.37,0.37-0.75,0.44-1.24c0.08-0.63,0.18-1.26,0.26-1.89c0.07-0.55,0.1-1.1,0.16-1.65
			c0.01-0.09,0.02-0.19,0.02-0.28c0.05-0.59,0.07-1.18,0.15-1.76c0.09-0.77,0.07-1.54,0.07-2.3c0-0.91-0.05-1.81-0.06-2.73
			c-0.01-0.5-0.05-0.99-0.14-1.47c-0.06-0.28-0.13-0.55-0.17-0.82c-0.23-1.34-0.46-2.67-0.68-4.01c-0.01-0.07-0.03-0.14-0.06-0.2
			c-0.21-0.5-0.33-1.07-0.46-1.64c-0.24-1.09-0.54-2.13-1.01-2.99c-0.23-0.42-0.46-0.86-0.62-1.37c-0.25-0.81-0.61-1.47-1.05-1.98
			c-0.31-0.36-0.62-0.73-0.93-1.1c-0.33-0.4-0.65-0.82-1-1.2c-0.34-0.39-0.72-0.68-1.13-0.79c-0.09-0.02-0.19-0.09-0.27-0.16
			c-0.78-0.69-1.6-1.22-2.46-1.59c-0.19-0.08-0.34-0.02-0.5,0.17c-0.14,0.18-0.27,0.35-0.42,0.48c-0.52,0.5-1.03,0.99-1.55,1.48
			c-0.05,0.04-0.09,0.11-0.1,0.18c-0.02,0.18-0.05,0.36-0.05,0.53c0,1.08,0,2.17,0.01,3.25c0.01,0.8,0.03,1.6,0.06,2.42
			c0.02,0.91,0.07,1.81,0.09,2.73c0.01,0.52-0.03,1.04-0.03,1.56c0.01,0.88,0.02,1.76,0.07,2.64c0.05,0.97,0.02,1.94-0.02,2.91
			c-0.02,0.56-0.06,1.1-0.06,1.66c0,0.78,0.03,1.56,0.05,2.33c0,0.35,0.01,0.69-0.01,1.04c-0.14,1.77-0.17,3.55-0.22,5.34
			c-0.01,0.63-0.03,1.28-0.05,1.91c-0.02,0.9-0.05,1.79-0.06,2.69c-0.01,0.81,0.01,1.63,0.01,2.43c0,0.3,0.02,0.6,0.11,0.88
			c0.16,0.52,0.4,0.88,0.77,0.9C63.38,90.05,63.78,90.04,64.18,90.04z"/>
		<path d="M64.18,90.04c-0.4,0-0.8,0.01-1.2,0c-0.37-0.02-0.61-0.37-0.77-0.9c-0.08-0.27-0.11-0.57-0.11-0.88
			c0-0.81-0.02-1.63-0.01-2.43c0.01-0.9,0.03-1.79,0.06-2.69c0.01-0.63,0.03-1.28,0.05-1.91c0.05-1.78,0.08-3.56,0.22-5.34
			c0.02-0.33,0.01-0.69,0.01-1.04c-0.01-0.78-0.05-1.56-0.05-2.33c0-0.56,0.03-1.1,0.06-1.66c0.03-0.97,0.06-1.94,0.02-2.91
			c-0.03-0.88-0.06-1.76-0.07-2.64c0-0.52,0.05-1.04,0.03-1.56c-0.01-0.91-0.06-1.81-0.09-2.73c-0.02-0.8-0.05-1.6-0.06-2.42
			c-0.01-1.08-0.01-2.17-0.01-3.25c0-0.18,0.01-0.36,0.05-0.53c0.01-0.07,0.06-0.14,0.1-0.18c0.52-0.5,1.03-0.98,1.55-1.48
			c0.15-0.14,0.29-0.31,0.42-0.48c0.15-0.2,0.31-0.26,0.5-0.17c0.86,0.36,1.67,0.9,2.46,1.59c0.09,0.08,0.18,0.13,0.27,0.16
			c0.41,0.11,0.79,0.4,1.13,0.79c0.34,0.38,0.66,0.8,1,1.2c0.31,0.37,0.62,0.75,0.93,1.1c0.45,0.51,0.8,1.17,1.05,1.98
			c0.16,0.52,0.39,0.96,0.62,1.37c0.47,0.87,0.77,1.9,1.01,2.99c0.13,0.57,0.25,1.14,0.46,1.64c0.02,0.07,0.05,0.13,0.06,0.2
			c0.23,1.34,0.45,2.67,0.68,4.01c0.05,0.28,0.11,0.55,0.17,0.82c0.09,0.48,0.13,0.97,0.14,1.47c0.02,0.91,0.06,1.81,0.06,2.73
			c0,0.77,0.02,1.54-0.07,2.3c-0.07,0.58-0.1,1.17-0.15,1.76c-0.01,0.09-0.01,0.19-0.02,0.28c-0.06,0.55-0.09,1.1-0.16,1.65
			c-0.08,0.63-0.18,1.26-0.26,1.89c-0.07,0.5-0.24,0.88-0.44,1.24c-0.42,0.8-0.86,1.58-1.27,2.39c-0.17,0.33-0.36,0.61-0.56,0.88
			c-0.26,0.33-0.53,0.68-0.78,1.04c-0.18,0.26-0.37,0.48-0.58,0.62c-0.3,0.2-0.58,0.46-0.89,0.58c-0.38,0.16-0.77,0.2-1.16,0.28
			c-0.31,0.07-0.62,0.11-0.93,0.16c-0.24,0.03-0.47,0.08-0.71,0.07c-0.39-0.01-0.77,0.11-1.15,0.24c-0.37,0.13-0.73,0.11-1.1,0.11
			c-0.17,0-0.33,0-0.5,0C64.18,90.05,64.18,90.05,64.18,90.04z M73.43,74.95c0-0.1,0.01-0.21,0.01-0.31
			c0.01-0.48,0.01-0.96-0.08-1.41C73.23,72.62,73.12,72,73,71.39c-0.03-0.19-0.08-0.37-0.13-0.55c-0.03-0.14-0.08-0.29-0.09-0.45
			c-0.03-0.35-0.11-0.65-0.21-0.95c-0.07-0.22-0.14-0.46-0.21-0.69c-0.02-0.09-0.05-0.18-0.06-0.28c-0.05-0.33-0.08-0.67-0.11-1
			c-0.07-0.72-0.22-1.38-0.42-2.02c-0.19-0.61-0.38-1.22-0.57-1.84c-0.06-0.19-0.13-0.38-0.21-0.53c-0.3-0.6-0.6-1.19-0.89-1.77
			c-0.22-0.41-0.44-0.82-0.68-1.19c-0.21-0.32-0.42-0.62-0.65-0.9c-0.22-0.26-0.46-0.46-0.68-0.68c-0.31-0.3-0.6-0.67-0.94-0.89
			c-0.34-0.23-0.68-0.52-1-0.82c-0.55-0.51-1.13-0.96-1.71-1.4c-0.11-0.09-0.25-0.09-0.38-0.11c-0.11-0.02-0.24,0.01-0.36-0.02
			c-0.38-0.12-0.77-0.08-1.15-0.08c-0.11,0-0.13,0.03-0.13,0.23c0,0.68,0.01,1.35,0,2.03c-0.01,1.4,0.05,2.79,0.09,4.19
			c0.03,0.92,0.05,1.85,0.06,2.77c0,0.42-0.03,0.86-0.03,1.28c0.01,0.73,0.03,1.48,0.07,2.22c0.03,0.85,0.03,1.68,0,2.53
			c-0.03,0.7-0.06,1.4-0.07,2.1s0.02,1.4,0.03,2.1c0,0.41,0.01,0.84,0,1.25c-0.05,0.91-0.11,1.83-0.15,2.75
			c-0.05,1.14-0.07,2.26-0.09,3.4c-0.02,0.89-0.05,1.77-0.06,2.66c-0.01,1.21-0.01,2.43-0.01,3.65c0,0.24,0.05,0.5,0.11,0.72
			c0.1,0.37,0.27,0.65,0.53,0.66c0.48,0.03,0.97,0.03,1.47,0.02c0.34,0,0.68-0.03,1.02-0.03c0.15,0,0.3,0.01,0.45-0.06
			c0.22-0.1,0.45-0.18,0.68-0.21c0.29-0.04,0.58-0.03,0.87-0.06c0.06,0,0.11-0.01,0.17-0.03c0.14-0.07,0.27-0.16,0.42-0.21
			c0.26-0.1,0.5-0.26,0.74-0.48c0.15-0.14,0.32-0.24,0.48-0.37c0.18-0.14,0.39-0.27,0.56-0.47c0.39-0.47,0.77-0.97,1.09-1.57
			c0.38-0.69,0.71-1.44,0.92-2.33c0.07-0.29,0.16-0.55,0.29-0.77c0.14-0.27,0.26-0.55,0.4-0.81c0.07-0.13,0.1-0.29,0.13-0.47
			c0.07-0.67,0.17-1.31,0.36-1.91c0.09-0.29,0.16-0.6,0.18-0.92c0.05-0.58,0.09-1.15,0.16-1.73C73.36,76.52,73.47,75.76,73.43,74.95
			z M68.58,89.11c0,0.02,0.01,0.04,0.01,0.06c0.02,0.01,0.05,0.02,0.06,0.01c0.49-0.13,1.01-0.16,1.47-0.53
			c0.08-0.06,0.15-0.11,0.23-0.17c0.3-0.2,0.58-0.47,0.82-0.85c0.25-0.37,0.53-0.69,0.78-1.04c0.1-0.14,0.23-0.28,0.32-0.46
			c0.47-0.89,0.92-1.84,1.42-2.68c0.18-0.3,0.32-0.66,0.39-1.09c0.1-0.65,0.23-1.28,0.27-1.95c0.03-0.48,0.09-0.95,0.13-1.43
			c0.01-0.17,0.03-0.32,0.05-0.49c0.06-0.69,0.13-1.38,0.18-2.08c0.01-0.11,0.02-0.22,0.02-0.32c-0.01-1.31-0.02-2.63-0.06-3.94
			c-0.01-0.56-0.08-1.12-0.15-1.67c-0.07-0.52-0.17-1.05-0.25-1.56c-0.19-1.1-0.38-2.19-0.57-3.28c-0.01-0.08-0.03-0.16-0.07-0.22
			c-0.21-0.49-0.33-1.06-0.46-1.63c-0.22-0.99-0.47-1.95-0.89-2.75c-0.31-0.59-0.61-1.18-0.82-1.88c-0.1-0.31-0.23-0.6-0.38-0.85
			c-0.19-0.32-0.41-0.59-0.63-0.86c-0.26-0.32-0.54-0.62-0.8-0.95c-0.14-0.17-0.26-0.37-0.4-0.53c-0.21-0.24-0.41-0.49-0.63-0.72
			c-0.31-0.33-0.63-0.6-0.98-0.7c-0.17-0.04-0.32-0.13-0.47-0.27c-0.76-0.67-1.55-1.18-2.37-1.51c-0.13-0.06-0.22-0.01-0.32,0.11
			c-0.13,0.16-0.24,0.31-0.37,0.45c-0.49,0.48-0.98,0.95-1.49,1.43c-0.03,0.03-0.07,0.07-0.1,0.1c0,0.01,0,0.02,0.01,0.04
			c0.03,0,0.08,0.01,0.11,0.01c0.3,0.01,0.6,0.02,0.9,0.04c0.18,0.01,0.37,0.03,0.55,0.06c0.13,0.02,0.25,0.02,0.37,0.11
			c0.54,0.41,1.07,0.84,1.59,1.27c0.25,0.21,0.48,0.5,0.73,0.68c0.45,0.32,0.89,0.67,1.29,1.14c0.38,0.45,0.82,0.7,1.17,1.22
			c0.19,0.29,0.39,0.57,0.56,0.89c0.33,0.6,0.64,1.21,0.95,1.85c0.21,0.41,0.42,0.81,0.56,1.3c0.18,0.6,0.37,1.2,0.56,1.8
			c0.22,0.68,0.39,1.39,0.46,2.17c0.06,0.69,0.16,1.34,0.37,1.94c0.1,0.29,0.17,0.6,0.21,0.94c0.01,0.11,0.03,0.21,0.06,0.31
			c0.07,0.29,0.14,0.57,0.19,0.86c0.08,0.4,0.16,0.8,0.24,1.19c0.1,0.5,0.18,1.01,0.17,1.56c-0.01,0.45,0,0.9-0.01,1.35
			c-0.01,0.38-0.05,0.75-0.07,1.12c-0.03,0.37-0.07,0.72-0.1,1.09c-0.02,0.23-0.03,0.48-0.06,0.71c-0.07,0.51-0.09,1.05-0.25,1.53
			c-0.21,0.62-0.31,1.3-0.38,2c-0.01,0.13-0.05,0.28-0.09,0.39c-0.13,0.29-0.26,0.57-0.4,0.84c-0.11,0.22-0.23,0.45-0.29,0.72
			c-0.23,1.01-0.62,1.84-1.04,2.61c-0.32,0.57-0.68,1.05-1.05,1.48c-0.22,0.24-0.47,0.39-0.71,0.58
			C68.96,88.79,68.76,88.95,68.58,89.11z"/>
		<path class="st1" d="M73.43,74.95c0.05,0.8-0.07,1.57-0.14,2.35c-0.06,0.57-0.1,1.15-0.16,1.73c-0.02,0.33-0.09,0.63-0.18,0.92
			c-0.19,0.6-0.3,1.25-0.36,1.91c-0.02,0.18-0.05,0.33-0.13,0.47c-0.14,0.27-0.26,0.56-0.4,0.81c-0.13,0.23-0.22,0.48-0.29,0.77
			c-0.21,0.89-0.54,1.63-0.92,2.33c-0.33,0.6-0.7,1.11-1.09,1.57c-0.17,0.2-0.37,0.32-0.56,0.47c-0.16,0.12-0.33,0.22-0.48,0.37
			c-0.24,0.22-0.48,0.38-0.74,0.48c-0.14,0.06-0.27,0.14-0.42,0.21c-0.06,0.02-0.11,0.03-0.17,0.03c-0.29,0.02-0.58,0.01-0.87,0.06
			c-0.23,0.03-0.46,0.11-0.68,0.21c-0.15,0.07-0.3,0.06-0.45,0.06c-0.34,0.01-0.68,0.03-1.02,0.03c-0.49,0-0.97,0.01-1.47-0.02
			c-0.24-0.02-0.42-0.3-0.53-0.66c-0.07-0.22-0.1-0.48-0.11-0.72c-0.01-1.21,0-2.43,0.01-3.65c0.01-0.89,0.03-1.77,0.06-2.66
			c0.03-1.14,0.05-2.26,0.09-3.4c0.03-0.91,0.1-1.83,0.15-2.75c0.02-0.41,0.01-0.84,0-1.25c-0.01-0.7-0.03-1.4-0.03-2.1
			s0.03-1.4,0.07-2.1c0.03-0.85,0.03-1.68,0-2.53c-0.03-0.73-0.06-1.48-0.07-2.22c-0.01-0.42,0.03-0.86,0.03-1.28
			c-0.01-0.92-0.02-1.85-0.06-2.77c-0.05-1.39-0.1-2.78-0.09-4.19c0-0.67,0-1.35,0-2.03c0-0.2,0.01-0.23,0.13-0.23
			c0.39,0,0.77-0.04,1.15,0.08c0.11,0.03,0.24,0,0.36,0.02c0.13,0.02,0.26,0.02,0.38,0.11c0.57,0.45,1.16,0.89,1.71,1.4
			c0.33,0.3,0.65,0.59,1,0.82c0.33,0.22,0.63,0.59,0.94,0.89c0.23,0.22,0.47,0.42,0.68,0.68c0.23,0.27,0.46,0.57,0.65,0.9
			c0.24,0.38,0.46,0.78,0.68,1.19c0.31,0.58,0.61,1.17,0.89,1.77c0.08,0.16,0.14,0.35,0.21,0.53c0.19,0.61,0.38,1.22,0.57,1.84
			c0.19,0.63,0.36,1.29,0.42,2.02c0.03,0.33,0.07,0.67,0.11,1c0.01,0.1,0.03,0.19,0.06,0.28c0.07,0.23,0.13,0.47,0.21,0.69
			c0.09,0.3,0.17,0.61,0.21,0.95c0.01,0.16,0.06,0.3,0.09,0.45c0.05,0.18,0.09,0.37,0.13,0.55c0.13,0.61,0.24,1.22,0.36,1.84
			c0.09,0.46,0.09,0.94,0.08,1.41C73.43,74.74,73.43,74.85,73.43,74.95z M64.42,78.8c0,0.73,0,2.14,0,3.54
			c0,0.26,0.03,0.31,0.16,0.32c0.29,0.02,0.58,0.07,0.87,0.06c0.54-0.03,1.08-0.09,1.61-0.14c0.27-0.02,0.55-0.09,0.82-0.09
			c0.16,0,0.31-0.02,0.45-0.12c0.07-0.04,0.13-0.07,0.19-0.11c0.21-0.12,0.42-0.22,0.62-0.38c0.24-0.19,0.47-0.41,0.71-0.62
			c0.06-0.06,0.11-0.11,0.15-0.19c0.22-0.55,0.37-1.14,0.39-1.79c0.02-0.62,0.03-1.25,0.06-1.87c0.02-0.48,0.07-0.96,0.08-1.44
			c0.02-0.87-0.03-1.71-0.18-2.55c-0.05-0.27-0.08-0.55-0.1-0.81c-0.06-0.68-0.11-1.36-0.17-2.03c-0.01-0.09-0.02-0.18-0.05-0.24
			c-0.18-0.46-0.27-0.98-0.38-1.49c-0.07-0.35-0.16-0.67-0.27-0.97c-0.15-0.38-0.29-0.77-0.44-1.15c-0.07-0.18-0.15-0.35-0.23-0.5
			c-0.11-0.21-0.24-0.42-0.37-0.61c-0.41-0.62-0.79-1.3-1.24-1.86c-0.09-0.11-0.18-0.24-0.29-0.35c-0.31-0.33-0.62-0.66-0.93-0.98
			c-0.06-0.07-0.14-0.11-0.21-0.13c-0.25-0.08-0.52-0.13-0.77-0.2c-0.27-0.07-0.27-0.07-0.31,0.41c-0.06,0.8-0.08,1.61-0.06,2.43
			c0.02,0.67,0.02,1.35,0.02,2.02c0.01,0.84,0.01,1.67,0.01,2.52c0,0.63,0,1.26-0.01,1.89c-0.02,0.91-0.08,1.84-0.1,2.75
			C64.45,75.43,64.44,76.78,64.42,78.8z"/>
		<path class="st1" d="M68.58,89.11c0.18-0.16,0.37-0.31,0.56-0.46c0.24-0.19,0.49-0.32,0.71-0.58c0.38-0.43,0.73-0.91,1.05-1.48
			c0.44-0.78,0.81-1.6,1.04-2.61c0.07-0.29,0.18-0.5,0.29-0.72c0.14-0.28,0.27-0.55,0.4-0.84c0.05-0.11,0.08-0.24,0.09-0.39
			c0.07-0.7,0.17-1.38,0.38-2c0.16-0.48,0.18-1.01,0.25-1.53c0.03-0.23,0.03-0.48,0.06-0.71c0.03-0.37,0.07-0.72,0.1-1.09
			c0.03-0.37,0.06-0.75,0.07-1.12c0.01-0.45,0-0.9,0.01-1.35c0.01-0.55-0.07-1.05-0.17-1.56c-0.08-0.4-0.16-0.8-0.24-1.19
			c-0.06-0.29-0.13-0.57-0.19-0.86c-0.02-0.1-0.05-0.2-0.06-0.31c-0.03-0.33-0.1-0.65-0.21-0.94c-0.21-0.6-0.32-1.25-0.37-1.94
			c-0.06-0.78-0.24-1.48-0.46-2.17c-0.19-0.6-0.38-1.19-0.56-1.8c-0.15-0.49-0.37-0.89-0.56-1.3c-0.31-0.62-0.63-1.25-0.95-1.85
			c-0.17-0.32-0.37-0.6-0.56-0.89c-0.36-0.52-0.79-0.78-1.17-1.22c-0.4-0.47-0.85-0.81-1.29-1.14c-0.25-0.18-0.48-0.47-0.73-0.68
			c-0.53-0.43-1.05-0.87-1.59-1.27c-0.11-0.09-0.24-0.09-0.37-0.11c-0.18-0.03-0.37-0.04-0.55-0.06c-0.3-0.02-0.6-0.02-0.9-0.04
			c-0.03,0-0.08-0.01-0.11-0.01c0-0.01,0-0.02-0.01-0.04c0.03-0.03,0.07-0.07,0.1-0.1c0.49-0.47,1-0.94,1.49-1.43
			c0.13-0.12,0.25-0.29,0.37-0.45c0.1-0.12,0.19-0.17,0.32-0.11c0.82,0.35,1.61,0.85,2.37,1.51c0.15,0.13,0.31,0.22,0.47,0.27
			c0.36,0.1,0.69,0.37,0.98,0.7c0.22,0.23,0.42,0.48,0.63,0.72c0.14,0.17,0.26,0.36,0.4,0.53c0.26,0.32,0.54,0.62,0.8,0.95
			c0.22,0.27,0.44,0.55,0.63,0.86c0.15,0.24,0.27,0.53,0.38,0.85c0.22,0.7,0.52,1.3,0.82,1.88c0.42,0.8,0.68,1.76,0.89,2.75
			c0.13,0.57,0.24,1.12,0.46,1.63c0.02,0.07,0.05,0.14,0.07,0.22c0.19,1.09,0.38,2.19,0.57,3.28c0.09,0.52,0.19,1.04,0.25,1.56
			c0.07,0.55,0.13,1.11,0.15,1.67c0.03,1.31,0.05,2.63,0.06,3.94c0,0.11-0.01,0.22-0.02,0.32c-0.06,0.69-0.11,1.38-0.18,2.08
			c-0.01,0.17-0.03,0.32-0.05,0.49c-0.05,0.48-0.09,0.95-0.13,1.43c-0.05,0.67-0.17,1.3-0.27,1.95c-0.07,0.43-0.21,0.79-0.39,1.09
			c-0.5,0.85-0.94,1.78-1.42,2.68c-0.09,0.18-0.21,0.31-0.32,0.46c-0.26,0.35-0.54,0.67-0.78,1.04c-0.25,0.37-0.53,0.63-0.82,0.85
			c-0.08,0.06-0.16,0.1-0.23,0.17c-0.47,0.38-0.97,0.4-1.47,0.53c-0.02,0-0.05-0.01-0.06-0.01C68.59,89.15,68.58,89.13,68.58,89.11z
			"/>
		<path d="M64.42,78.8c0.02-2.02,0.02-3.36,0.05-4.71c0.02-0.92,0.08-1.84,0.1-2.75c0.02-0.62,0.01-1.26,0.01-1.89
			c0-0.84,0-1.67-0.01-2.52c0-0.67-0.01-1.35-0.02-2.02c-0.02-0.81,0-1.61,0.06-2.43c0.03-0.48,0.03-0.48,0.31-0.41
			c0.25,0.07,0.52,0.12,0.77,0.2c0.07,0.02,0.14,0.07,0.21,0.13c0.31,0.32,0.62,0.65,0.93,0.98c0.1,0.1,0.18,0.23,0.29,0.35
			c0.45,0.56,0.82,1.24,1.24,1.86c0.13,0.19,0.25,0.4,0.37,0.61c0.08,0.16,0.16,0.32,0.23,0.5c0.15,0.38,0.27,0.77,0.44,1.15
			c0.13,0.3,0.22,0.62,0.27,0.97c0.1,0.51,0.19,1.04,0.38,1.49c0.02,0.07,0.05,0.16,0.05,0.24c0.06,0.68,0.11,1.36,0.17,2.03
			c0.02,0.28,0.06,0.56,0.1,0.81c0.15,0.84,0.21,1.68,0.18,2.55c-0.01,0.48-0.06,0.96-0.08,1.44c-0.02,0.62-0.02,1.25-0.06,1.87
			c-0.03,0.66-0.17,1.26-0.39,1.79c-0.03,0.09-0.09,0.14-0.15,0.19c-0.23,0.21-0.47,0.45-0.71,0.62c-0.21,0.16-0.41,0.26-0.62,0.38
			c-0.07,0.03-0.13,0.07-0.19,0.11c-0.15,0.09-0.3,0.11-0.45,0.12c-0.27,0-0.55,0.07-0.82,0.09c-0.54,0.06-1.08,0.11-1.61,0.14
			c-0.29,0.01-0.58-0.03-0.87-0.06c-0.13-0.01-0.16-0.07-0.16-0.32C64.42,80.93,64.42,79.53,64.42,78.8z M65.98,62.87
			c0,0.39,0,0.75,0,1.11c0,0.81,0,1.63-0.02,2.43c-0.01,0.8-0.06,1.6,0.11,2.38c0.08,0.37,0.08,0.76,0.07,1.14
			c-0.01,0.42-0.02,0.86-0.02,1.28c0,1.1,0.01,2.2,0,3.31c-0.01,0.7-0.01,1.4-0.11,2.08c-0.02,0.14-0.03,0.3-0.03,0.46
			c-0.01,1.01-0.02,2.04-0.02,3.05c0,0.06,0.02,0.13,0.05,0.14c0.13,0.06,0.26,0.14,0.39,0.11c0.46-0.12,0.92-0.26,1.36-0.43
			c0.38-0.16,0.74-0.38,1.12-0.57c0.21-0.11,0.44-0.17,0.62-0.39c0.22-0.26,0.41-0.52,0.61-0.82c0.11-0.19,0.17-0.38,0.17-0.65
			c0.01-0.26,0.01-0.5,0.03-0.76c0.09-1.07,0.06-2.12-0.11-3.15c-0.06-0.31-0.09-0.63-0.13-0.96c-0.07-0.67-0.11-1.35-0.17-2.02
			c-0.01-0.07-0.02-0.14-0.05-0.2c-0.19-0.51-0.29-1.1-0.41-1.67c-0.03-0.17-0.07-0.33-0.13-0.48c-0.16-0.45-0.33-0.89-0.5-1.32
			c-0.06-0.14-0.11-0.29-0.19-0.41c-0.18-0.31-0.37-0.62-0.54-0.92c-0.15-0.26-0.29-0.51-0.45-0.75c-0.19-0.3-0.41-0.58-0.62-0.86
			c-0.1-0.14-0.22-0.28-0.33-0.4c-0.19-0.21-0.4-0.42-0.61-0.62C66.06,62.94,66.03,62.91,65.98,62.87z M70.22,78.42
			c-0.02,0.01-0.02,0.01-0.03,0.02c-0.02,0.02-0.03,0.04-0.05,0.08c-0.29,0.49-0.63,0.85-1.02,1.05c-0.33,0.17-0.66,0.31-0.98,0.49
			c-0.45,0.26-0.92,0.4-1.39,0.56c-0.3,0.1-0.6,0.08-0.88-0.09c-0.08-0.04-0.13-0.12-0.11-0.28c0.02-0.55,0.03-1.09,0.05-1.64
			c0.01-0.87-0.03-1.75,0.1-2.59c0.01-0.06,0.01-0.11,0.01-0.17c0.02-0.89,0.05-1.77,0.05-2.66c0.01-0.88-0.01-1.76-0.01-2.65
			c0-0.26,0.01-0.5,0.02-0.76c0.01-0.48-0.06-0.94-0.14-1.38c-0.06-0.33-0.07-0.67-0.06-1c0.02-0.69,0.05-1.38,0.05-2.07
			c0-0.86-0.02-1.71-0.03-2.58c0-0.12-0.05-0.17-0.1-0.18c-0.26-0.07-0.54-0.13-0.81-0.2c-0.07-0.01-0.09,0.02-0.1,0.13
			c-0.06,0.79-0.08,1.59-0.07,2.39c0.02,0.89,0.02,1.79,0.02,2.69c0,0.41,0,0.84,0,1.25c0,0.72,0.02,1.45,0.01,2.17
			c-0.02,1.02-0.09,2.05-0.11,3.08c-0.03,1.81-0.05,3.63-0.06,5.43c-0.01,0.87,0,1.73,0,2.59c0,0.24,0.01,0.27,0.16,0.28
			c0.14,0,0.27,0.01,0.41,0.01c0.25,0,0.49,0.03,0.74,0.01c0.64-0.06,1.28-0.14,1.91-0.22c0.13-0.01,0.26-0.07,0.39-0.12
			c0.13-0.06,0.24-0.12,0.36-0.19c0.18-0.11,0.37-0.2,0.54-0.35c0.23-0.19,0.45-0.42,0.68-0.63c0.11-0.1,0.21-0.24,0.26-0.45
			c0.18-0.61,0.25-1.26,0.22-1.94C70.24,78.48,70.23,78.45,70.22,78.42z"/>
		<path class="st1" d="M70.22,78.42c0.01,0.03,0.02,0.07,0.02,0.1c0.03,0.68-0.05,1.32-0.22,1.94c-0.06,0.2-0.15,0.33-0.26,0.45
			c-0.23,0.21-0.45,0.45-0.68,0.63c-0.17,0.14-0.36,0.23-0.54,0.35c-0.11,0.07-0.24,0.14-0.36,0.19c-0.13,0.06-0.25,0.1-0.39,0.12
			c-0.64,0.08-1.28,0.17-1.91,0.22c-0.24,0.02-0.49-0.01-0.74-0.01c-0.14,0-0.27-0.01-0.41-0.01c-0.15,0-0.16-0.02-0.16-0.28
			c0-0.87-0.01-1.73,0-2.59c0.01-1.81,0.02-3.63,0.06-5.43c0.02-1.02,0.09-2.05,0.11-3.08c0.01-0.72-0.01-1.45-0.01-2.17
			c0-0.41,0-0.84,0-1.25c-0.01-0.9-0.01-1.79-0.02-2.69c-0.02-0.8,0-1.6,0.07-2.39c0.01-0.11,0.05-0.16,0.1-0.13
			c0.27,0.07,0.54,0.13,0.81,0.2c0.06,0.01,0.1,0.07,0.1,0.18c0.01,0.86,0.03,1.71,0.03,2.58c0,0.69-0.02,1.38-0.05,2.07
			c-0.01,0.35,0,0.68,0.06,1c0.08,0.46,0.16,0.9,0.14,1.38c-0.01,0.26-0.02,0.5-0.02,0.76c0,0.88,0.01,1.76,0.01,2.65
			c-0.01,0.89-0.03,1.77-0.05,2.66c0,0.06,0,0.11-0.01,0.17c-0.14,0.86-0.09,1.73-0.1,2.59c-0.01,0.55-0.02,1.09-0.05,1.64
			c0,0.16,0.03,0.23,0.11,0.28c0.29,0.16,0.58,0.18,0.88,0.09c0.47-0.16,0.93-0.3,1.39-0.56c0.32-0.19,0.65-0.33,0.98-0.49
			c0.39-0.2,0.73-0.56,1.02-1.05c0.01-0.02,0.03-0.06,0.05-0.08C70.2,78.43,70.21,78.43,70.22,78.42z"/>
		<g class="st5">
			<path class="st6" d="M64.47,82.17c-0.02-0.5,0.14-0.88,0.34-1.25c0.23-0.35,0.5-0.68,0.95-0.89l0.37,0.21
				c0.02,0.49-0.14,0.88-0.34,1.25c-0.23,0.36-0.49,0.68-0.95,0.89L64.47,82.17z"/>
		</g>
	</g>
	<g id="E_1_">
		<path d="M82.95,81.53c0.02,0.01,0.06,0.06,0.09,0.06c0.37,0.03,0.72,0.08,1.09,0.09c1.09,0.04,2.18,0.09,3.26,0.12
			c0.69,0.02,1.37,0.04,2.06,0.07c0.23,0.01,0.46,0.06,0.69,0.09c0.15,0.03,0.19,0.12,0.19,0.38c0,0.3-0.01,0.6-0.01,0.9
			c0,0.39,0,0.78,0.03,1.17c0.05,0.46,0.01,0.95,0.01,1.41c0,0.32,0.03,0.7-0.05,0.97c-0.08,0.24-0.29,0.4-0.45,0.57
			c-0.24,0.24-0.49,0.48-0.74,0.7c-0.05,0.04-0.1,0.07-0.16,0.07c-0.22-0.01-0.44-0.04-0.65-0.07c-0.1-0.01-0.21,0-0.32,0
			c-1.03,0.03-2.06,0.06-3.09,0.1c-0.24,0.01-0.49,0.11-0.73,0.16c-0.24,0.04-0.49,0.1-0.73,0.11c-0.55,0.02-1.11,0.08-1.66-0.01
			c-0.87-0.13-1.74-0.02-2.6-0.07c-0.13-0.01-0.24,0.02-0.39,0.04c-0.13-0.09-0.14-0.3-0.14-0.53c0-1.09,0.03-2.18-0.01-3.26
			c-0.07-1.64-0.03-3.27-0.05-4.9c-0.01-1.09,0.01-2.17,0-3.26c-0.01-0.77-0.06-1.54-0.05-2.3c0.01-0.69,0.07-1.37,0.1-2.06
			c0.01-0.12,0-0.26,0.01-0.38c0-0.88-0.01-1.76,0.01-2.65c0.01-0.8,0.07-1.59,0.1-2.38c0-0.11,0-0.22,0-0.33
			c-0.01-0.92-0.01-1.86,0.07-2.77c0.13-1.54,0.1-3.07,0.11-4.61c0-0.47,0.06-0.94,0.05-1.4c0-0.29,0-0.56,0.07-0.81
			c0.03-0.12,0.08-0.26,0.15-0.32c0.29-0.35,0.58-0.7,0.89-1c0.32-0.31,0.66-0.56,1-0.82c0.05-0.03,0.09-0.04,0.13-0.09
			c0.29-0.37,0.62-0.42,0.97-0.39c0.32,0.02,0.65-0.03,0.97,0.02c0.42,0.07,0.84,0.02,1.25,0.1c0.44,0.09,0.87,0.06,1.32,0.08
			c0.69,0.03,1.37,0.06,2.06,0.1c0.36,0.02,0.7,0.07,1.05,0.08c0.14,0.01,0.29-0.06,0.42-0.07c0.14-0.01,0.29-0.01,0.42,0
			c0.18,0.01,0.36,0.07,0.54,0.07c0.32,0.01,0.63,0,0.95,0.01c0.38,0,0.57,0.33,0.56,0.96c0,0.2,0.03,0.4,0.05,0.6
			c0.01,0.13,0.01,0.28,0.01,0.41c0.01,0.23-0.05,0.47,0.06,0.68c0.02,0.04,0.01,0.11,0.01,0.18c0.01,0.32,0.01,0.65,0.02,0.98
			c0.01,0.43,0.03,0.88-0.05,1.31c-0.03,0.16-0.03,0.35-0.01,0.5c0.03,0.24-0.02,0.39-0.14,0.52c-0.36,0.41-0.71,0.84-1.08,1.24
			c-0.07,0.08-0.17,0.11-0.26,0.13c-0.23,0.03-0.46,0.06-0.69,0.07c-0.14,0.01-0.26-0.01-0.4-0.03c-0.05,0-0.09-0.03-0.14-0.03
			c-0.5-0.04-1.01-0.07-1.51-0.11c-0.53-0.04-1.04-0.11-1.57-0.17c-0.52-0.06-1.02-0.13-1.53-0.19c-0.19-0.02-0.38-0.02-0.57-0.01
			c-0.15,0-0.21,0.1-0.16,0.32c0.06,0.3,0.06,0.57-0.05,0.86c-0.03,0.1-0.02,0.28-0.01,0.41c0.06,0.46,0.05,0.9,0,1.36
			c-0.02,0.18,0,0.38-0.01,0.57c-0.01,0.42-0.05,0.85-0.05,1.27c0,0.28,0.01,0.57,0.05,0.84c0.03,0.24,0.09,0.3,0.24,0.27
			c0.31-0.07,0.61-0.01,0.9,0.06c0.41,0.08,0.84,0.12,1.25,0.18c0.39,0.04,0.78,0.09,1.17,0.09c0.37,0,0.74-0.04,1.11-0.08
			c0.22-0.02,0.44,0.01,0.65,0.28c0.03,0.79-0.06,1.61-0.03,2.44c0.01,0.81,0,1.63-0.01,2.52c-0.15,0.29-0.39,0.51-0.62,0.77
			c-0.07,0.07-0.15,0.11-0.18,0.21c-0.21,0.47-0.52,0.61-0.8,0.85c-0.05,0.04-0.11,0.07-0.16,0.06c-0.56-0.14-1.12-0.03-1.68-0.07
			c-0.64-0.04-1.27-0.07-1.91-0.1c-0.08,0-0.15,0-0.22,0c-0.02,0.06-0.03,0.09-0.03,0.11c0.06,0.47-0.1,0.87-0.14,1.3
			c-0.05,0.47-0.09,0.92-0.1,1.39c-0.02,0.78-0.07,1.56-0.1,2.34C83.01,80.3,82.98,80.9,82.95,81.53z M79.03,87.81
			c0.07,0.01,0.13,0.02,0.18,0.01c0.38-0.02,0.76,0,1.15-0.07c0.38-0.07,0.78,0.06,1.17,0.07c0.93,0.02,1.86,0.04,2.77-0.09
			c0.03-0.01,0.08-0.01,0.11-0.01c0.4-0.06,0.79-0.16,1.19-0.17c1-0.02,1.99-0.01,2.98-0.01c0.09,0,0.18-0.01,0.31-0.02
			c-0.02-0.33-0.07-0.62-0.07-0.91c-0.01-0.99,0-1.98-0.07-2.96c-0.01-0.1-0.01-0.21-0.02-0.32c-0.07,0-0.13,0-0.18,0
			c-1.35,0-2.71-0.01-4.07,0c-0.6,0.01-1.18,0.07-1.78,0.1c-0.02,0-0.06,0-0.08,0.01c-0.4,0.16-0.79,0.09-1.18-0.07
			c0-0.4-0.02-0.78,0-1.15c0.03-0.47,0.08-0.92,0.09-1.4c0.01-0.47,0.06-0.94,0.09-1.4c0.05-0.6,0.1-1.21,0.14-1.81
			c0.05-0.77,0.07-1.54,0.11-2.29c0.03-0.46,0.17-0.84,0.48-0.95c0.31-0.12,0.63-0.26,0.95-0.23c0.6,0.02,1.18,0,1.78,0.08
			c0.62,0.08,1.24,0.02,1.87,0.02c0.03,0,0.08,0,0.11,0c0.14-0.03,0.19-0.16,0.21-0.38c0.01-0.42,0.03-0.85,0.05-1.27
			c0.01-0.71,0.01-1.41,0-2.13c0-0.24-0.05-0.5-0.09-0.73c-0.01-0.08-0.08-0.14-0.13-0.18c-0.09-0.06-0.18-0.09-0.27-0.1
			c-0.39-0.03-0.78-0.08-1.17-0.08c-0.37,0-0.74,0.06-1.11,0.06c-0.3,0-0.58-0.04-0.88-0.07c-0.56-0.03-1.12-0.07-1.68-0.1
			c-0.07,0-0.13-0.02-0.22-0.04c-0.01-0.16-0.05-0.31-0.05-0.46c0.02-0.51,0.08-1.02,0.09-1.54c0.02-1.02,0.03-2.04,0.05-3.06
			c0-0.21-0.03-0.43-0.02-0.65c0.02-0.43,0.06-0.87,0.08-1.31c0.01-0.13,0-0.28-0.01-0.42c-0.05-0.45,0.09-0.79,0.36-0.85
			c0.25-0.06,0.52-0.11,0.77-0.1c0.6,0.02,1.18-0.04,1.78,0.08c0.38,0.08,0.76,0.01,1.15,0.1c0.33,0.08,0.69,0.03,1.03,0.09
			c0.52,0.09,1.04,0.09,1.57,0.12c0.42,0.03,0.86,0.07,1.28,0.08c0.17,0,0.36-0.09,0.53,0.11c0.07-0.53-0.02-1-0.06-1.48
			c-0.05-0.72-0.06-1.44,0-2.16c0.02-0.29,0.06-0.59-0.05-0.81c-0.3,0.03-0.56,0.07-0.84,0.1c-0.06,0.01-0.11,0-0.17-0.01
			c-0.18-0.02-0.36-0.07-0.54-0.07c-0.44-0.01-0.88,0.01-1.32-0.01c-0.86-0.03-1.72,0.04-2.58-0.08c-0.72-0.1-1.44-0.1-2.18-0.09
			c-0.76,0-1.51,0.04-2.26,0.08c-0.08,0-0.15,0.03-0.23,0.04c-0.23,0.06-0.46,0.16-0.7,0.06c-0.02-0.01-0.05,0.02-0.07,0.04
			c-0.02,0.41-0.06,0.81-0.07,1.22c-0.01,0.6,0,1.19-0.01,1.79c-0.01,0.91-0.03,1.81-0.06,2.73c0,0.03,0,0.07,0,0.09
			c-0.14,0.84-0.1,1.71-0.15,2.56c-0.06,0.98-0.01,1.97-0.06,2.96c-0.03,0.72-0.01,1.45-0.01,2.17c0,0.18,0,0.35,0,0.52
			c-0.03,0.75-0.09,1.49-0.1,2.25c-0.01,1.04-0.01,2.07,0.03,3.11c0.05,0.99,0.03,2-0.02,3.01c-0.06,0.84,0.01,1.69,0.03,2.54
			c0.05,1.9,0.05,3.8,0.07,5.7C79.01,87.69,79.03,87.72,79.03,87.81z M79.83,56.42c0.11,0.07,0.16,0.11,0.19,0.11
			c0.26-0.02,0.53-0.06,0.8-0.08c0.47-0.06,0.93-0.13,1.4-0.16c0.77-0.02,1.52-0.04,2.29,0.06c0.37,0.04,0.74-0.04,1.11-0.06
			c0.42-0.01,0.84-0.02,1.26,0.01c0.44,0.03,0.87,0.13,1.31,0.16c0.47,0.03,0.94-0.01,1.41,0.01c0.3,0.01,0.56-0.14,0.81-0.38
			c0.15-0.13,0.26-0.36,0.38-0.56c0.03-0.06,0.02-0.17,0.03-0.27c0.06-0.01,0.14-0.03,0.21-0.04c-0.14-0.07-0.26-0.07-0.4-0.07
			c-0.15,0-0.31,0.01-0.46-0.01c-0.34-0.04-0.68-0.11-1.02-0.17c-0.03-0.01-0.08-0.01-0.11,0c-0.27,0.1-0.54,0.06-0.81,0.01
			c-0.49-0.08-0.98-0.03-1.48-0.09c-0.87-0.1-1.75-0.08-2.63-0.12c-0.36-0.01-0.7-0.06-1.05-0.09c-0.02,0-0.03-0.01-0.06-0.01
			c-0.22-0.02-0.44-0.09-0.65-0.07s-0.42,0.1-0.64,0.19c-0.13,0.06-0.25,0.17-0.37,0.24c-0.3,0.2-0.61,0.38-0.85,0.77
			c-0.03,0.06-0.08,0.09-0.11,0.12C80.2,56.07,80.04,56.22,79.83,56.42z M83.37,67.19c0-0.2,0-0.43,0-0.67c0-0.28,0-0.57,0.01-0.85
			c0.02-0.69,0.07-1.37,0.09-2.06c0.01-0.61,0.01-1.22,0.01-1.84c0-0.09-0.01-0.18-0.02-0.27c-0.85-0.13-0.85-0.13-1.1,0.04
			c-0.01,0.14-0.03,0.28-0.05,0.41c-0.05,0.55-0.11,1.08-0.13,1.63c-0.03,1.1-0.05,2.19-0.07,3.3c0,0.24-0.03,0.5-0.03,0.75
			c-0.01,0.32,0,0.65,0,0.96C82.5,68.14,82.92,67.68,83.37,67.19z M81.76,82.7c0.11,0.04,0.17,0.04,0.24-0.09
			c0.15-0.32,0.32-0.62,0.49-0.92c0.08-0.14,0.14-0.3,0.13-0.5c0-0.09-0.01-0.19,0.01-0.28c0.15-0.9,0.1-1.84,0.15-2.75
			c0.05-1,0.07-1.99,0.23-2.97c0.03-0.2,0.03-0.41,0.06-0.65c-0.07,0.01-0.1,0-0.14,0.02c-0.14,0.12-0.27,0.24-0.45,0.28
			c-0.11,0.02-0.21,0.18-0.23,0.38c-0.03,0.28-0.07,0.56-0.08,0.84c-0.02,0.47-0.03,0.94-0.07,1.4c-0.07,0.84-0.15,1.67-0.16,2.52
			c0,0.14-0.01,0.29-0.03,0.41C81.76,81.14,81.88,81.92,81.76,82.7z M82.48,68.78c0.01,0.03,0.02,0.06,0.02,0.09
			c0.13-0.02,0.24-0.06,0.37-0.08c0.08-0.01,0.15-0.03,0.23-0.03c0.45,0.06,0.89,0.14,1.33,0.16c1,0.03,1.98,0.02,2.98,0.02
			c0.07,0,0.14,0,0.19-0.04c0.32-0.24,0.63-0.5,0.95-0.75c-0.22-0.03-0.44,0-0.64,0.02c-0.13,0.01-0.25,0.06-0.37,0
			c-0.19-0.09-0.4-0.06-0.6-0.08c-0.49-0.03-0.98-0.07-1.49-0.1c-0.02,0-0.06-0.01-0.08-0.01c-0.42-0.11-0.85-0.2-1.27-0.19
			c-0.18,0.01-0.39-0.09-0.56-0.01c-0.17,0.08-0.32,0.32-0.49,0.47C82.86,68.45,82.67,68.61,82.48,68.78z M88.75,68.5
			c-0.34,0.32-0.64,0.58-0.93,0.85c-0.07,0.07-0.16,0.17-0.18,0.29c-0.05,0.27-0.08,0.55-0.08,0.82c-0.01,0.96-0.01,1.91-0.01,2.88
			c0,0.1,0.01,0.2,0.02,0.32c0.4-0.4,0.78-0.78,1.16-1.16c-0.01-0.65-0.06-1.29-0.02-1.93C88.75,69.93,88.75,69.28,88.75,68.5z
			 M91.62,60.11c-0.02-0.78-0.06-1.55-0.06-2.32c0.01-1.11,0-1.99-0.08-2.29c-0.22,0.26-0.42,0.51-0.64,0.77
			c-0.17,0.21-0.26,0.48-0.25,0.84c0,0.84,0,1.67,0.01,2.51c0.01,0.46,0.07,0.91,0.11,1.45c0.11-0.12,0.19-0.22,0.27-0.29
			C91.21,60.58,91.34,60.16,91.62,60.11z M82.3,82.96c0.29-0.04,0.54-0.1,0.8-0.12c0.49-0.04,0.98-0.1,1.48-0.09
			c1.11,0.02,2.23-0.1,3.34,0.07c0.29,0.04,0.57-0.03,0.85-0.06c0.3-0.02,0.52-0.22,0.77-0.47c-0.17,0-0.32-0.03-0.46,0.01
			c-0.47,0.16-0.93,0.07-1.4,0.04c-0.41-0.02-0.84-0.12-1.25-0.14c-0.9-0.06-1.81-0.08-2.71-0.12c-0.11,0-0.23-0.06-0.34-0.06
			c-0.18,0-0.37-0.03-0.53,0.07C82.62,82.22,82.43,82.49,82.3,82.96z M89.96,82.64c-0.24,0.24-0.45,0.48-0.68,0.67
			c-0.15,0.13-0.19,0.31-0.18,0.57c0.02,0.98,0.05,1.97,0.06,2.95c0,0.18,0.02,0.33,0.11,0.45c0.03-0.02,0.07-0.02,0.09-0.04
			c0.18-0.26,0.37-0.5,0.54-0.77c0.05-0.08,0.1-0.2,0.1-0.31c0.01-0.62,0.03-1.26-0.01-1.88C89.95,83.75,89.97,83.23,89.96,82.64z"
			/>
		<path class="st1" d="M79.03,87.81c-0.01-0.09-0.01-0.12-0.01-0.16c-0.02-1.9-0.02-3.81-0.07-5.7c-0.02-0.85-0.08-1.7-0.03-2.54
			c0.07-1,0.07-2.02,0.02-3.01c-0.05-1.04-0.05-2.07-0.03-3.11c0.01-0.75,0.07-1.49,0.1-2.25c0.01-0.17,0-0.35,0-0.52
			c0-0.72-0.02-1.45,0.01-2.17c0.05-0.99,0.01-1.98,0.06-2.96c0.05-0.86,0.01-1.73,0.15-2.56c0-0.03,0-0.07,0-0.09
			c0.02-0.91,0.05-1.81,0.06-2.73c0.01-0.6,0-1.2,0.01-1.79c0.01-0.4,0.05-0.8,0.07-1.22c0.02-0.01,0.05-0.06,0.07-0.04
			c0.24,0.1,0.47,0,0.7-0.06c0.08-0.02,0.15-0.04,0.23-0.04c0.76-0.03,1.5-0.08,2.26-0.08c0.72,0,1.45,0,2.18,0.09
			c0.86,0.12,1.72,0.04,2.58,0.08c0.44,0.02,0.88,0,1.32,0.01c0.18,0,0.36,0.04,0.54,0.07c0.06,0.01,0.11,0.01,0.17,0.01
			c0.26-0.03,0.54-0.07,0.84-0.1c0.1,0.22,0.07,0.52,0.05,0.81c-0.06,0.72-0.06,1.44,0,2.16c0.03,0.48,0.13,0.95,0.06,1.48
			c-0.17-0.2-0.34-0.11-0.53-0.11c-0.42-0.01-0.86-0.04-1.28-0.08c-0.53-0.03-1.05-0.02-1.57-0.12c-0.34-0.07-0.69-0.01-1.03-0.09
			c-0.38-0.09-0.77-0.02-1.15-0.1c-0.6-0.12-1.18-0.06-1.78-0.08c-0.25-0.01-0.52,0.04-0.77,0.1c-0.26,0.06-0.4,0.4-0.36,0.85
			c0.01,0.13,0.02,0.28,0.01,0.42c-0.02,0.43-0.06,0.87-0.08,1.31c-0.01,0.21,0.02,0.43,0.02,0.65c-0.01,1.02-0.02,2.04-0.05,3.06
			c-0.01,0.51-0.07,1.02-0.09,1.54c-0.01,0.14,0.02,0.3,0.05,0.46c0.09,0.02,0.15,0.03,0.22,0.04c0.56,0.03,1.12,0.07,1.68,0.1
			c0.3,0.02,0.58,0.07,0.88,0.07c0.37,0,0.74-0.06,1.11-0.06c0.39,0,0.78,0.04,1.17,0.08c0.09,0.01,0.18,0.04,0.27,0.1
			c0.05,0.03,0.11,0.1,0.13,0.18c0.05,0.24,0.08,0.49,0.09,0.73c0.01,0.71,0,1.41,0,2.13c0,0.42-0.02,0.85-0.05,1.27
			c-0.01,0.22-0.08,0.35-0.21,0.38c-0.03,0.01-0.08,0-0.11,0c-0.62,0-1.25,0.06-1.87-0.02c-0.6-0.08-1.18-0.04-1.78-0.08
			c-0.33-0.01-0.64,0.11-0.95,0.23c-0.31,0.12-0.45,0.49-0.48,0.95c-0.06,0.76-0.07,1.53-0.11,2.29c-0.03,0.61-0.09,1.21-0.14,1.81
			c-0.03,0.47-0.08,0.94-0.09,1.4c-0.01,0.48-0.06,0.94-0.09,1.4c-0.02,0.37,0,0.75,0,1.15c0.39,0.16,0.78,0.22,1.18,0.07
			c0.02-0.01,0.06-0.01,0.08-0.01c0.6-0.03,1.18-0.09,1.78-0.1c1.35-0.01,2.71,0,4.07,0c0.06,0,0.11,0,0.18,0
			c0.01,0.12,0.01,0.22,0.02,0.32c0.07,0.98,0.06,1.97,0.07,2.96c0,0.29,0.05,0.58,0.07,0.91c-0.13,0.01-0.22,0.02-0.31,0.02
			c-1,0-1.99-0.01-2.98,0.01c-0.4,0.01-0.79,0.11-1.19,0.17c-0.03,0-0.08,0-0.11,0.01c-0.93,0.13-1.84,0.11-2.77,0.09
			c-0.39-0.01-0.78-0.12-1.17-0.07c-0.38,0.07-0.76,0.03-1.15,0.07C79.15,87.84,79.09,87.82,79.03,87.81z"/>
		<path class="st1" d="M79.83,56.42c0.22-0.2,0.38-0.35,0.53-0.49c0.05-0.03,0.09-0.08,0.11-0.12c0.24-0.38,0.54-0.57,0.85-0.77
			c0.13-0.08,0.24-0.19,0.37-0.24c0.21-0.09,0.42-0.17,0.64-0.19c0.22-0.02,0.44,0.04,0.65,0.07c0.02,0,0.03,0.01,0.06,0.01
			c0.36,0.03,0.7,0.08,1.05,0.09c0.88,0.04,1.75,0.02,2.63,0.12c0.49,0.06,1,0.01,1.48,0.09c0.27,0.04,0.55,0.1,0.81-0.01
			c0.03-0.01,0.08,0,0.11,0c0.34,0.06,0.68,0.11,1.02,0.17c0.15,0.02,0.31,0.01,0.46,0.01c0.14,0,0.26,0,0.4,0.07
			c-0.07,0.01-0.14,0.03-0.21,0.04c-0.01,0.1,0,0.21-0.03,0.27c-0.11,0.2-0.24,0.42-0.38,0.56c-0.25,0.23-0.52,0.4-0.81,0.38
			c-0.47-0.02-0.94,0.01-1.41-0.01c-0.44-0.02-0.87-0.13-1.31-0.16c-0.42-0.03-0.84-0.02-1.26-0.01c-0.37,0.01-0.74,0.11-1.11,0.06
			c-0.77-0.1-1.52-0.08-2.29-0.06c-0.47,0.01-0.93,0.1-1.4,0.16c-0.26,0.03-0.53,0.06-0.8,0.08C79.99,56.53,79.94,56.48,79.83,56.42
			z"/>
		<path class="st1" d="M83.37,67.19c-0.45,0.49-0.87,0.94-1.29,1.4c0-0.31,0-0.63,0-0.96c0-0.24,0.03-0.5,0.03-0.75
			c0.02-1.1,0.03-2.19,0.07-3.3c0.02-0.55,0.08-1.08,0.13-1.63c0.01-0.13,0.03-0.28,0.05-0.41c0.25-0.18,0.25-0.18,1.1-0.04
			c0.01,0.08,0.02,0.18,0.02,0.27c0,0.61,0.01,1.22-0.01,1.84c-0.02,0.69-0.07,1.37-0.09,2.06c-0.01,0.28-0.01,0.57-0.01,0.85
			C83.37,66.76,83.37,66.99,83.37,67.19z"/>
		<path class="st1" d="M81.76,82.7c0.1-0.78,0-1.56,0.14-2.3c0.02-0.13,0.03-0.28,0.03-0.41c0-0.85,0.09-1.68,0.16-2.52
			c0.03-0.47,0.03-0.94,0.07-1.4c0.01-0.28,0.05-0.56,0.08-0.84c0.02-0.2,0.11-0.36,0.23-0.38c0.17-0.03,0.31-0.16,0.45-0.28
			c0.03-0.02,0.07-0.01,0.14-0.02C83.03,74.79,83.03,75,83,75.2c-0.17,0.97-0.18,1.97-0.23,2.97c-0.05,0.91-0.01,1.85-0.15,2.75
			c-0.01,0.09-0.01,0.19-0.01,0.28c0.01,0.2-0.05,0.36-0.13,0.5c-0.17,0.29-0.33,0.6-0.49,0.92C81.95,82.75,81.89,82.75,81.76,82.7z
			"/>
		<path class="st1" d="M82.48,68.78c0.19-0.17,0.38-0.33,0.57-0.51c0.16-0.16,0.31-0.4,0.49-0.47c0.17-0.08,0.38,0.02,0.56,0.01
			c0.44-0.01,0.85,0.08,1.27,0.19c0.02,0.01,0.06,0.01,0.08,0.01c0.49,0.03,0.98,0.07,1.49,0.1c0.19,0.01,0.4-0.02,0.6,0.08
			c0.11,0.06,0.24,0.01,0.37,0c0.22-0.02,0.42-0.06,0.64-0.02c-0.32,0.26-0.63,0.5-0.95,0.75c-0.06,0.04-0.13,0.04-0.19,0.04
			c-1,0-1.98,0.01-2.98-0.02c-0.45-0.01-0.89-0.11-1.33-0.16c-0.07-0.01-0.15,0.01-0.23,0.03c-0.13,0.02-0.24,0.06-0.37,0.08
			C82.5,68.84,82.48,68.81,82.48,68.78z"/>
		<path class="st1" d="M88.75,68.5c0,0.78,0,1.44-0.03,2.09c-0.03,0.63,0.01,1.28,0.02,1.93c-0.38,0.38-0.76,0.76-1.16,1.16
			c-0.01-0.12-0.02-0.22-0.02-0.32c0-0.96,0-1.91,0.01-2.88c0-0.28,0.03-0.56,0.08-0.82c0.02-0.11,0.1-0.22,0.18-0.29
			C88.11,69.08,88.4,68.82,88.75,68.5z"/>
		<path class="st1" d="M91.62,60.11c-0.3,0.06-0.41,0.47-0.63,0.66c-0.08,0.08-0.16,0.17-0.27,0.29c-0.05-0.53-0.1-0.99-0.11-1.45
			c-0.02-0.84-0.01-1.67-0.01-2.51c0-0.36,0.08-0.63,0.25-0.84c0.22-0.24,0.42-0.5,0.64-0.77c0.08,0.3,0.09,1.18,0.08,2.29
			C91.57,58.55,91.61,59.32,91.62,60.11z"/>
		<path class="st1" d="M82.3,82.96c0.13-0.47,0.32-0.72,0.56-0.87c0.16-0.09,0.36-0.06,0.53-0.07c0.11,0,0.23,0.04,0.34,0.06
			c0.9,0.04,1.81,0.07,2.71,0.12c0.41,0.02,0.84,0.13,1.25,0.14c0.47,0.02,0.93,0.11,1.4-0.04c0.14-0.04,0.29-0.01,0.46-0.01
			c-0.25,0.24-0.47,0.45-0.77,0.47c-0.29,0.02-0.57,0.09-0.85,0.06c-1.11-0.17-2.23-0.04-3.34-0.07c-0.49-0.01-0.98,0.04-1.48,0.09
			C82.84,82.86,82.58,82.92,82.3,82.96z"/>
		<path class="st1" d="M89.96,82.64c0,0.59-0.01,1.1,0.03,1.64c0.05,0.62,0.02,1.26,0.01,1.88c0,0.11-0.06,0.23-0.1,0.31
			c-0.17,0.27-0.36,0.51-0.54,0.77c-0.02,0.02-0.06,0.02-0.09,0.04c-0.09-0.11-0.11-0.27-0.11-0.45c-0.02-0.98-0.03-1.97-0.06-2.95
			c-0.01-0.27,0.03-0.43,0.18-0.57C89.52,83.12,89.72,82.88,89.96,82.64z"/>
	</g>
	<g id="V_1_">
		<path class="st1" d="M110.13,54.12c-0.03-0.01-0.07-0.03-0.09-0.07c-0.05-0.06-0.08-0.11-0.11-0.18l-1.52,3.95l-2.29,10.4
			l-1.02,5.67l0.6-3.73l2.71-12.32l1.47-4.05c-0.11-0.22-0.17-0.47-0.21-0.71l-2.29-0.18l-2.03,4.35l-0.78,3.31l-1.07,5.6
			l-1.56,5.12l-2.79,9.76l-0.08-0.39l0.64-1.59l-0.02-1.08l-0.03-2.1l-0.07-3.64l-0.25-5.46l-0.07-3.58l-0.06-2.91l-0.06-3.07
			l-0.05-2.59l-0.03-1.68l-0.33,0.02l-2.81-0.27l-1.72,3.92l0.02,1.35l0.06,3.27l0.47,5.95l0.07,3.61l0.5,4.6l0.46,5.28l0.56,4.7
			l0.07,3.94l5.55-0.62c0.11-0.09,0.22-0.19,0.32-0.29c0.01-0.02,0.03-0.03,0.06-0.04l0.02-0.16c0.01,0.01,0.02,0.02,0.02,0.03
			c0.01,0.02,0.02,0.06,0.02,0.09c0.02-0.01,0.06-0.01,0.08-0.01l1.64-2.76l1.32-6.65l1.52-8.48l0.93-4.51l1.11-5.78l1.1-5.72
			L110.13,54.12z M98.48,74.68l-0.02-0.46l0.6,6.41l-0.08-0.4L98.48,74.68z"/>
		<path class="st1" d="M98.24,69.11l-0.02-0.36L98.24,69.11z"/>
		<polygon class="st1" points="97.35,58.04 97.42,58.84 97.26,56.85 		"/>
		<polyline class="st1" points="94.23,56.6 97.26,56.85 99.08,52.92 		"/>
		<polyline class="st1" points="98.47,74.22 98.24,69.11 97.42,58.84 		"/>
		<line class="st2" x1="105.79" y1="56.29" x2="108.81" y2="56.68"/>
		<line class="st2" x1="105.08" y1="73.89" x2="102.41" y2="88.21"/>
		<rect x="97.59" y="81.06" class="st3" width="4.59" height="3.94"/>
	</g>
	<g>
		<polygon class="st1" points="123.77,52.33 123.72,52.36 113.54,93.02 114.25,93.07 124.95,52.69 		"/>
		<polygon class="st1" points="114.25,93.07 115.64,92.89 126.23,51.83 124.95,52.69 		"/>
		<path class="st1" d="M126.1,51.74c0-0.02,0.01-0.06,0.02-0.08c0.01-0.02,0.02-0.06,0.05-0.08l0.01-0.01l-0.94-0.53l-1.4,1.17
			c0,0.01,0,0.02,0.01,0.03c0,0.03,0,0.07-0.02,0.1l-0.01,0.02l1.1,0.32l1.17-0.85c0-0.01-0.01-0.03-0.01-0.04L126.1,51.74z"/>
	</g>
	<g>
		<polygon class="st1" points="139.68,70.43 130.99,84.95 130.25,83.66 138.05,70.86 128.57,60.78 129.11,59.16 		"/>
		<polygon class="st1" points="130.99,84.95 130.04,85.79 129.42,84.47 130.25,83.66 		"/>
		<path class="st1" d="M137.31,71.14l-7.62,12.88c0.14-0.1,0.27-0.21,0.42-0.31c0.02-0.02,0.03-0.03,0.06-0.03
			c0.02-0.01,0.05-0.03,0.07-0.04c0.01,0,0.01-0.01,0.02,0l7.78-12.77l-9.48-10.06l-0.48,0.58L137.31,71.14z"/>
		<polygon class="st1" points="129.11,59.16 128.58,59.67 128.08,61.37 128.57,60.78 		"/>
	</g>
	<g>
		<polygon class="st1" points="11.47,75.38 19.97,60.53 20.74,61.79 13.11,74.89 22.73,84.6 22.2,86.24 		"/>
		<polygon class="st1" points="19.97,60.53 20.91,59.66 21.54,60.95 20.74,61.79 		"/>
		<path class="st1" d="M13.84,74.59l7.43-13.17c-0.14,0.1-0.27,0.22-0.41,0.32c-0.01,0.02-0.03,0.03-0.06,0.03
			c-0.02,0.01-0.05,0.03-0.07,0.04c-0.01,0-0.01,0.01-0.02,0.01l-7.59,13.06l9.61,9.71l0.47-0.6L13.84,74.59z"/>
		<polygon class="st1" points="22.2,86.24 22.73,85.72 23.2,83.99 22.73,84.6 		"/>
	</g>
</g>
</svg>
